<svg enable-background="new 0 0 612 792" viewBox="0 0 612 792" xmlns="http://www.w3.org/2000/svg" xmlns:xlink="http://www.w3.org/1999/xlink"><linearGradient id="a"><stop offset="0" stop-color="#c6c7c8"/><stop offset="1" stop-color="#fff"/></linearGradient><linearGradient id="b" gradientUnits="userSpaceOnUse" x1="259.83" x2="269.02" xlink:href="#a" y1="253.78" y2="262.96"/><linearGradient id="c" gradientUnits="userSpaceOnUse" x1="263.51" x2="271.8" xlink:href="#a" y1="254.19" y2="262.48"/><linearGradient id="d" gradientUnits="userSpaceOnUse" x1="269.1" x2="276.16" xlink:href="#a" y1="254.72" y2="261.77"/><linearGradient id="e" gradientUnits="userSpaceOnUse" x1="276.38" x2="281.88" xlink:href="#a" y1="255.38" y2="260.88"/><linearGradient id="f" gradientUnits="userSpaceOnUse" x1="284.96" x2="289.21" xlink:href="#a" y1="255.98" y2="260.23"/><linearGradient id="g" gradientUnits="userSpaceOnUse" x1="294.43" x2="298.81" xlink:href="#a" y1="256.23" y2="260.62"/><linearGradient id="h" gradientUnits="userSpaceOnUse" x1="303.87" x2="309.59" xlink:href="#a" y1="255.77" y2="261.49"/><linearGradient id="i" gradientUnits="userSpaceOnUse" x1="312.6" x2="320.47" xlink:href="#a" y1="254.51" y2="262.38"/><linearGradient id="j" gradientUnits="userSpaceOnUse" x1="320.64" x2="330.89" xlink:href="#a" y1="252.94" y2="263.19"/><linearGradient id="k" gradientUnits="userSpaceOnUse" x1="327.42" x2="339.89" xlink:href="#a" y1="251.88" y2="264.35"/><linearGradient id="l" gradientUnits="userSpaceOnUse" x1="333.15" x2="347.66" xlink:href="#a" y1="251" y2="265.5"/><linearGradient id="m" gradientUnits="userSpaceOnUse" x1="337.74" x2="353.76" xlink:href="#a" y1="250.31" y2="266.34"/><linearGradient id="n" gradientUnits="userSpaceOnUse" x1="230.03" x2="235.44" xlink:href="#a" y1="268.54" y2="273.95"/><linearGradient id="o" gradientUnits="userSpaceOnUse" x1="234.06" x2="239.31" xlink:href="#a" y1="268.52" y2="273.77"/><linearGradient id="p" gradientUnits="userSpaceOnUse" x1="206.55" x2="209.09" xlink:href="#a" y1="288.79" y2="291.33"/><linearGradient id="q" gradientUnits="userSpaceOnUse" x1="241.21" x2="246.26" xlink:href="#a" y1="268.51" y2="273.55"/><linearGradient id="r" gradientUnits="userSpaceOnUse" x1="251.16" x2="256.32" xlink:href="#a" y1="268.45" y2="273.61"/><linearGradient id="s" gradientUnits="userSpaceOnUse" x1="263.52" x2="269.43" xlink:href="#a" y1="268.25" y2="274.16"/><linearGradient id="t" gradientUnits="userSpaceOnUse" x1="277.93" x2="285.12" xlink:href="#a" y1="267.79" y2="274.98"/><linearGradient id="u" gradientUnits="userSpaceOnUse" x1="293.79" x2="302.54" xlink:href="#a" y1="267.13" y2="275.87"/><linearGradient id="v" gradientUnits="userSpaceOnUse" x1="309.49" x2="320.01" xlink:href="#a" y1="266.27" y2="276.8"/><linearGradient id="w" gradientUnits="userSpaceOnUse" x1="324.51" x2="336.85" xlink:href="#a" y1="265.22" y2="277.56"/><linearGradient id="x" gradientUnits="userSpaceOnUse" x1="338.3" x2="352.42" xlink:href="#a" y1="264.15" y2="278.27"/><linearGradient id="y" gradientUnits="userSpaceOnUse" x1="350.44" x2="366.22" xlink:href="#a" y1="263.12" y2="278.91"/><linearGradient id="z" gradientUnits="userSpaceOnUse" x1="360.27" x2="377.45" xlink:href="#a" y1="262.44" y2="279.62"/><linearGradient id="A" gradientUnits="userSpaceOnUse" x1="367.51" x2="385.71" xlink:href="#a" y1="262.05" y2="280.25"/><linearGradient id="B" gradientUnits="userSpaceOnUse" x1="213.48" x2="217.67" xlink:href="#a" y1="288" y2="292.19"/><linearGradient id="C" gradientUnits="userSpaceOnUse" x1="224.5" x2="230.34" xlink:href="#a" y1="287.25" y2="293.09"/><linearGradient id="D" gradientUnits="userSpaceOnUse" x1="239.2" x2="246.89" xlink:href="#a" y1="286.45" y2="294.14"/><linearGradient id="E" gradientUnits="userSpaceOnUse" x1="257.12" x2="266.78" xlink:href="#a" y1="285.56" y2="295.22"/><linearGradient id="F" gradientUnits="userSpaceOnUse" x1="277.83" x2="289.49" xlink:href="#a" y1="284.64" y2="296.3"/><linearGradient id="G" gradientUnits="userSpaceOnUse" x1="299.8" x2="312.89" xlink:href="#a" y1="283.94" y2="297.03"/><linearGradient id="H" gradientUnits="userSpaceOnUse" x1="321.23" x2="335.66" xlink:href="#a" y1="283.25" y2="297.69"/><linearGradient id="I" gradientUnits="userSpaceOnUse" x1="341.38" x2="357.15" xlink:href="#a" y1="282.51" y2="298.28"/><linearGradient id="J" gradientUnits="userSpaceOnUse" x1="359.59" x2="376.53" xlink:href="#a" y1="281.85" y2="298.8"/><linearGradient id="K" gradientUnits="userSpaceOnUse" x1="375.18" x2="393.16" xlink:href="#a" y1="281.24" y2="299.22"/><linearGradient id="L" gradientUnits="userSpaceOnUse" x1="387.56" x2="406.34" xlink:href="#a" y1="280.7" y2="299.49"/><linearGradient id="M" gradientUnits="userSpaceOnUse" x1="181.86" x2="185.13" xlink:href="#a" y1="312.84" y2="316.1"/><linearGradient id="N" gradientUnits="userSpaceOnUse" x1="187.69" x2="192.88" xlink:href="#a" y1="311.9" y2="317.09"/><linearGradient id="O" gradientUnits="userSpaceOnUse" x1="165.91" x2="173.76" xlink:href="#a" y1="339.25" y2="347.1"/><linearGradient id="P" gradientUnits="userSpaceOnUse" x1="198.62" x2="205.93" xlink:href="#a" y1="310.86" y2="318.18"/><linearGradient id="Q" gradientUnits="userSpaceOnUse" x1="214.33" x2="223.87" xlink:href="#a" y1="309.79" y2="319.34"/><linearGradient id="R" gradientUnits="userSpaceOnUse" x1="234.28" x2="246.05" xlink:href="#a" y1="308.78" y2="320.55"/><linearGradient id="S" gradientUnits="userSpaceOnUse" x1="258.06" x2="272" xlink:href="#a" y1="307.72" y2="321.66"/><linearGradient id="T" gradientUnits="userSpaceOnUse" x1="284.72" x2="300.08" xlink:href="#a" y1="306.98" y2="322.34"/><linearGradient id="U" gradientUnits="userSpaceOnUse" x1="311.58" x2="328.03" xlink:href="#a" y1="306.47" y2="322.91"/><linearGradient id="V" gradientUnits="userSpaceOnUse" x1="337.44" x2="354.71" xlink:href="#a" y1="306.06" y2="323.33"/><linearGradient id="W" gradientUnits="userSpaceOnUse" x1="361.3" x2="379.35" xlink:href="#a" y1="305.59" y2="323.65"/><linearGradient id="X" gradientUnits="userSpaceOnUse" x1="382.37" x2="400.98" xlink:href="#a" y1="305.27" y2="323.89"/><linearGradient id="Y" gradientUnits="userSpaceOnUse" x1="399.79" x2="418.86" xlink:href="#a" y1="304.99" y2="324.06"/><linearGradient id="Z" gradientUnits="userSpaceOnUse" x1="412.82" x2="432.12" xlink:href="#a" y1="304.84" y2="324.14"/><linearGradient id="aa" gradientUnits="userSpaceOnUse" x1="175.84" x2="185.39" xlink:href="#a" y1="338.44" y2="347.98"/><linearGradient id="ab" gradientUnits="userSpaceOnUse" x1="191.25" x2="202.78" xlink:href="#a" y1="337.44" y2="348.97"/><linearGradient id="ac" gradientUnits="userSpaceOnUse" x1="211.8" x2="225.37" xlink:href="#a" y1="336.46" y2="350.03"/><linearGradient id="ad" gradientUnits="userSpaceOnUse" x1="236.87" x2="252.46" xlink:href="#a" y1="335.4" y2="350.99"/><linearGradient id="ae" gradientUnits="userSpaceOnUse" x1="266.02" x2="283.48" xlink:href="#a" y1="334.52" y2="351.99"/><linearGradient id="af" gradientUnits="userSpaceOnUse" x1="297.01" x2="315.27" xlink:href="#a" y1="334.14" y2="352.41"/><linearGradient id="ag" gradientUnits="userSpaceOnUse" x1="327.27" x2="346.07" xlink:href="#a" y1="333.85" y2="352.65"/><linearGradient id="ah" gradientUnits="userSpaceOnUse" x1="355.92" x2="375.01" xlink:href="#a" y1="333.72" y2="352.81"/><linearGradient id="ai" gradientUnits="userSpaceOnUse" x1="381.9" x2="401.06" xlink:href="#a" y1="333.65" y2="352.81"/><linearGradient id="aj" gradientUnits="userSpaceOnUse" x1="404.19" x2="423.32" xlink:href="#a" y1="333.61" y2="352.74"/><linearGradient id="ak" gradientUnits="userSpaceOnUse" x1="421.93" x2="440.88" xlink:href="#a" y1="333.7" y2="352.65"/><linearGradient id="al" gradientUnits="userSpaceOnUse" x1="150.62" x2="161.91" xlink:href="#a" y1="369.69" y2="380.97"/><linearGradient id="am" gradientUnits="userSpaceOnUse" x1="158.41" x2="170.7" xlink:href="#a" y1="369.19" y2="381.47"/><linearGradient id="an" gradientUnits="userSpaceOnUse" x1="148.62" x2="164.04" xlink:href="#a" y1="402.27" y2="417.69"/><linearGradient id="ao" gradientUnits="userSpaceOnUse" x1="172.38" x2="186.14" xlink:href="#a" y1="368.48" y2="382.24"/><linearGradient id="ap" gradientUnits="userSpaceOnUse" x1="192" x2="207.48" xlink:href="#a" y1="367.6" y2="383.08"/><linearGradient id="aq" gradientUnits="userSpaceOnUse" x1="216.86" x2="233.96" xlink:href="#a" y1="366.75" y2="383.85"/><linearGradient id="ar" gradientUnits="userSpaceOnUse" x1="246.38" x2="265.19" xlink:href="#a" y1="365.94" y2="384.76"/><linearGradient id="as" gradientUnits="userSpaceOnUse" x1="279.36" x2="299.01" xlink:href="#a" y1="365.5" y2="385.15"/><linearGradient id="at" gradientUnits="userSpaceOnUse" x1="312.73" x2="332.56" xlink:href="#a" y1="365.44" y2="385.27"/><linearGradient id="au" gradientUnits="userSpaceOnUse" x1="344.68" x2="364.53" xlink:href="#a" y1="365.39" y2="385.23"/><linearGradient id="av" gradientUnits="userSpaceOnUse" x1="374.48" x2="393.96" xlink:href="#a" y1="365.61" y2="385.09"/><linearGradient id="aw" gradientUnits="userSpaceOnUse" x1="400.81" x2="419.81" xlink:href="#a" y1="365.86" y2="384.85"/><linearGradient id="ax" gradientUnits="userSpaceOnUse" x1="422.72" x2="441.07" xlink:href="#a" y1="366.16" y2="384.51"/><linearGradient id="ay" gradientUnits="userSpaceOnUse" x1="439.11" x2="456.77" xlink:href="#a" y1="366.51" y2="384.17"/><linearGradient id="az" gradientUnits="userSpaceOnUse" x1="160.05" x2="176.25" xlink:href="#a" y1="401.88" y2="418.09"/><linearGradient id="aA" gradientUnits="userSpaceOnUse" x1="177.53" x2="194.87" xlink:href="#a" y1="401.32" y2="418.66"/><linearGradient id="aB" gradientUnits="userSpaceOnUse" x1="200.59" x2="219.15" xlink:href="#a" y1="400.68" y2="419.24"/><linearGradient id="aC" gradientUnits="userSpaceOnUse" x1="228.76" x2="248.51" xlink:href="#a" y1="400.12" y2="419.87"/><linearGradient id="aD" gradientUnits="userSpaceOnUse" x1="261.23" x2="281.84" xlink:href="#a" y1="399.66" y2="420.27"/><linearGradient id="aE" gradientUnits="userSpaceOnUse" x1="295.76" x2="316.39" xlink:href="#a" y1="399.69" y2="420.32"/><linearGradient id="aF" gradientUnits="userSpaceOnUse" x1="329.47" x2="349.63" xlink:href="#a" y1="399.83" y2="419.99"/><linearGradient id="aG" gradientUnits="userSpaceOnUse" x1="361.49" x2="380.93" xlink:href="#a" y1="400.26" y2="419.7"/><linearGradient id="aH" gradientUnits="userSpaceOnUse" x1="390.56" x2="409.01" xlink:href="#a" y1="400.77" y2="419.23"/><linearGradient id="aI" gradientUnits="userSpaceOnUse" x1="415.59" x2="432.91" xlink:href="#a" y1="401.35" y2="418.66"/><linearGradient id="aJ" gradientUnits="userSpaceOnUse" x1="435.48" x2="451.75" xlink:href="#a" y1="401.86" y2="418.13"/><linearGradient id="aK" gradientUnits="userSpaceOnUse" x1="148.48" x2="165.82" xlink:href="#a" y1="435.76" y2="453.1"/><linearGradient id="aL" gradientUnits="userSpaceOnUse" x1="156.56" x2="174.26" xlink:href="#a" y1="435.58" y2="453.28"/><linearGradient id="aM" gradientUnits="userSpaceOnUse" x1="162.05" x2="180.85" xlink:href="#a" y1="466.82" y2="485.62"/><linearGradient id="aN" gradientUnits="userSpaceOnUse" x1="170.83" x2="189.14" xlink:href="#a" y1="435.25" y2="453.56"/><linearGradient id="aO" gradientUnits="userSpaceOnUse" x1="190.95" x2="209.89" xlink:href="#a" y1="434.98" y2="453.91"/><linearGradient id="aP" gradientUnits="userSpaceOnUse" x1="216.14" x2="235.73" xlink:href="#a" y1="434.59" y2="454.19"/><linearGradient id="aQ" gradientUnits="userSpaceOnUse" x1="246" x2="266.23" xlink:href="#a" y1="434.33" y2="454.55"/><linearGradient id="aR" gradientUnits="userSpaceOnUse" x1="279.25" x2="299.37" xlink:href="#a" y1="434.31" y2="454.43"/><linearGradient id="aS" gradientUnits="userSpaceOnUse" x1="312.92" x2="332.23" xlink:href="#a" y1="434.75" y2="454.05"/><linearGradient id="aT" gradientUnits="userSpaceOnUse" x1="345.28" x2="363.43" xlink:href="#a" y1="435.31" y2="453.46"/><linearGradient id="aU" gradientUnits="userSpaceOnUse" x1="375.3" x2="392.17" xlink:href="#a" y1="435.96" y2="452.83"/><linearGradient id="aV" gradientUnits="userSpaceOnUse" x1="402.01" x2="417.34" xlink:href="#a" y1="436.75" y2="452.08"/><linearGradient id="aW" gradientUnits="userSpaceOnUse" x1="424.31" x2="438" xlink:href="#a" y1="437.6" y2="451.29"/><linearGradient id="aX" gradientUnits="userSpaceOnUse" x1="441.03" x2="453.23" xlink:href="#a" y1="438.36" y2="450.55"/><linearGradient id="aY" gradientUnits="userSpaceOnUse" x1="172.62" x2="191.54" xlink:href="#a" y1="466.75" y2="485.67"/><linearGradient id="aZ" gradientUnits="userSpaceOnUse" x1="188.79" x2="207.87" xlink:href="#a" y1="466.64" y2="485.71"/><linearGradient id="a0" gradientUnits="userSpaceOnUse" x1="210.09" x2="229.21" xlink:href="#a" y1="466.61" y2="485.73"/><linearGradient id="a1" gradientUnits="userSpaceOnUse" x1="235.88" x2="255.11" xlink:href="#a" y1="466.55" y2="485.78"/><linearGradient id="a2" gradientUnits="userSpaceOnUse" x1="265.65" x2="284.66" xlink:href="#a" y1="466.62" y2="485.63"/><linearGradient id="a3" gradientUnits="userSpaceOnUse" x1="297.17" x2="315.14" xlink:href="#a" y1="467.13" y2="485.1"/><linearGradient id="a4" gradientUnits="userSpaceOnUse" x1="327.97" x2="344.71" xlink:href="#a" y1="467.77" y2="484.5"/><linearGradient id="a5" gradientUnits="userSpaceOnUse" x1="357.19" x2="372.37" xlink:href="#a" y1="468.56" y2="483.74"/><linearGradient id="a6" gradientUnits="userSpaceOnUse" x1="383.74" x2="397.2" xlink:href="#a" y1="469.46" y2="482.91"/><linearGradient id="a7" gradientUnits="userSpaceOnUse" x1="406.75" x2="418.18" xlink:href="#a" y1="470.46" y2="481.9"/><linearGradient id="a8" gradientUnits="userSpaceOnUse" x1="425.14" x2="434.65" xlink:href="#a" y1="471.45" y2="480.96"/><linearGradient id="a9" gradientUnits="userSpaceOnUse" x1="176.12" x2="195.56" xlink:href="#a" y1="494.73" y2="514.16"/><linearGradient id="ba" gradientUnits="userSpaceOnUse" x1="182.82" x2="202.12" xlink:href="#a" y1="494.81" y2="514.1"/><linearGradient id="bb" gradientUnits="userSpaceOnUse" x1="201.08" x2="220.36" xlink:href="#a" y1="518.62" y2="537.9"/><linearGradient id="bc" gradientUnits="userSpaceOnUse" x1="194.79" x2="213.81" xlink:href="#a" y1="494.88" y2="513.9"/><linearGradient id="bd" gradientUnits="userSpaceOnUse" x1="211.44" x2="230.08" xlink:href="#a" y1="494.98" y2="513.63"/><linearGradient id="be" gradientUnits="userSpaceOnUse" x1="232.33" x2="250.47" xlink:href="#a" y1="495.18" y2="513.33"/><linearGradient id="bf" gradientUnits="userSpaceOnUse" x1="257.09" x2="274.6" xlink:href="#a" y1="495.47" y2="512.98"/><linearGradient id="bg" gradientUnits="userSpaceOnUse" x1="284.51" x2="300.96" xlink:href="#a" y1="496" y2="512.45"/><linearGradient id="bh" gradientUnits="userSpaceOnUse" x1="312.11" x2="327" xlink:href="#a" y1="496.71" y2="511.6"/><linearGradient id="bi" gradientUnits="userSpaceOnUse" x1="338.65" x2="352.01" xlink:href="#a" y1="497.55" y2="510.91"/><linearGradient id="bj" gradientUnits="userSpaceOnUse" x1="363.29" x2="374.84" xlink:href="#a" y1="498.48" y2="510.02"/><linearGradient id="bk" gradientUnits="userSpaceOnUse" x1="385.28" x2="394.81" xlink:href="#a" y1="499.56" y2="509.09"/><linearGradient id="bl" gradientUnits="userSpaceOnUse" x1="403.66" x2="411.1" xlink:href="#a" y1="500.65" y2="508.09"/><linearGradient id="bm" gradientUnits="userSpaceOnUse" x1="417.64" x2="422.95" xlink:href="#a" y1="501.78" y2="507.09"/><linearGradient id="bn" gradientUnits="userSpaceOnUse" x1="208.83" x2="227.59" xlink:href="#a" y1="518.89" y2="537.65"/><linearGradient id="bo" gradientUnits="userSpaceOnUse" x1="220.7" x2="238.7" xlink:href="#a" y1="519.21" y2="537.21"/><linearGradient id="bp" gradientUnits="userSpaceOnUse" x1="236.39" x2="253.36" xlink:href="#a" y1="519.6" y2="536.57"/><linearGradient id="bq" gradientUnits="userSpaceOnUse" x1="255.38" x2="271.19" xlink:href="#a" y1="520.02" y2="535.83"/><linearGradient id="br" gradientUnits="userSpaceOnUse" x1="277.08" x2="291.6" xlink:href="#a" y1="520.6" y2="535.12"/><linearGradient id="bs" gradientUnits="userSpaceOnUse" x1="300.03" x2="312.78" xlink:href="#a" y1="521.45" y2="534.2"/><linearGradient id="bt" gradientUnits="userSpaceOnUse" x1="322.34" x2="333.31" xlink:href="#a" y1="522.34" y2="533.31"/><linearGradient id="bu" gradientUnits="userSpaceOnUse" x1="343.4" x2="352.61" xlink:href="#a" y1="523.28" y2="532.48"/><linearGradient id="bv" gradientUnits="userSpaceOnUse" x1="362.5" x2="370.11" xlink:href="#a" y1="524.23" y2="531.83"/><linearGradient id="bw" gradientUnits="userSpaceOnUse" x1="378.99" x2="384.99" xlink:href="#a" y1="525.17" y2="531.17"/><linearGradient id="bx" gradientUnits="userSpaceOnUse" x1="392.16" x2="396.6" xlink:href="#a" y1="526.06" y2="530.49"/><linearGradient id="by" gradientUnits="userSpaceOnUse" x1="226.81" x2="245.5" xlink:href="#a" y1="537.05" y2="555.75"/><linearGradient id="bz" gradientUnits="userSpaceOnUse" x1="230.88" x2="248.99" xlink:href="#a" y1="537.42" y2="555.53"/><linearGradient id="bA" gradientUnits="userSpaceOnUse" x1="259.7" x2="276.62" xlink:href="#a" y1="550.1" y2="567.03"/><linearGradient id="bB" gradientUnits="userSpaceOnUse" x1="238.11" x2="255.29" xlink:href="#a" y1="538" y2="555.17"/><linearGradient id="bC" gradientUnits="userSpaceOnUse" x1="248.25" x2="264.08" xlink:href="#a" y1="538.75" y2="554.58"/><linearGradient id="bD" gradientUnits="userSpaceOnUse" x1="261.22" x2="275.38" xlink:href="#a" y1="539.45" y2="553.61"/><linearGradient id="bE" gradientUnits="userSpaceOnUse" x1="276.53" x2="288.85" xlink:href="#a" y1="540.15" y2="552.48"/><linearGradient id="bF" gradientUnits="userSpaceOnUse" x1="293.46" x2="303.75" xlink:href="#a" y1="541" y2="551.29"/><linearGradient id="bG" gradientUnits="userSpaceOnUse" x1="310.28" x2="318.59" xlink:href="#a" y1="541.98" y2="550.29"/><linearGradient id="bH" gradientUnits="userSpaceOnUse" x1="326.25" x2="332.91" xlink:href="#a" y1="542.9" y2="549.55"/><linearGradient id="bI" gradientUnits="userSpaceOnUse" x1="340.87" x2="346.44" xlink:href="#a" y1="543.72" y2="549.28"/><linearGradient id="bJ" gradientUnits="userSpaceOnUse" x1="353.45" x2="358.62" xlink:href="#a" y1="544.13" y2="549.3"/><linearGradient id="bK" gradientUnits="userSpaceOnUse" x1="363.37" x2="368.66" xlink:href="#a" y1="544" y2="549.28"/><linearGradient id="bL" gradientUnits="userSpaceOnUse" x1="370.55" x2="376.26" xlink:href="#a" y1="543.69" y2="549.39"/><linearGradient id="bM" gradientUnits="userSpaceOnUse" x1="263.11" x2="279.06" xlink:href="#a" y1="550.57" y2="566.52"/><linearGradient id="bN" gradientUnits="userSpaceOnUse" x1="268.4" x2="282.91" xlink:href="#a" y1="551.34" y2="565.85"/><linearGradient id="bO" gradientUnits="userSpaceOnUse" x1="275.29" x2="287.88" xlink:href="#a" y1="552.42" y2="565"/><linearGradient id="bP" gradientUnits="userSpaceOnUse" x1="283.59" x2="293.88" xlink:href="#a" y1="553.72" y2="564.01"/><linearGradient id="bQ" gradientUnits="userSpaceOnUse" x1="293.58" x2="301.32" xlink:href="#a" y1="554.68" y2="562.43"/><linearGradient id="bR" gradientUnits="userSpaceOnUse" x1="304.09" x2="309.41" xlink:href="#a" y1="555.56" y2="560.88"/><linearGradient id="bS" gradientUnits="userSpaceOnUse" x1="313.84" x2="317.68" xlink:href="#a" y1="556.58" y2="560.42"/><linearGradient id="bT" gradientUnits="userSpaceOnUse" x1="322.27" x2="326.09" xlink:href="#a" y1="556.96" y2="560.78"/><linearGradient id="bU" gradientUnits="userSpaceOnUse" x1="328.59" x2="334.07" xlink:href="#a" y1="556.01" y2="561.49"/><linearGradient id="bV" gradientUnits="userSpaceOnUse" x1="333.88" x2="341.06" xlink:href="#a" y1="555.05" y2="562.23"/><linearGradient id="bW" gradientUnits="userSpaceOnUse" x1="338.07" x2="346.64" xlink:href="#a" y1="554.28" y2="562.85"/><radialGradient id="bX" cx="212.02" cy="308.8" gradientUnits="userSpaceOnUse" r="277.39"><stop offset="0" stop-color="#fff"/><stop offset="1" stop-color="#c6c7c8"/></radialGradient><path d="m305.32 499.73c78.718 0 149.36 23.128 158.76 54.906 10.65 36.041-59.813 69.011-158.76 69.011s-169.41-32.97-158.76-69.011c9.39-31.779 80.038-54.906 158.76-54.906z" fill="#fff"/><path d="m305.32 500.31c77.88 0 147.7 22.897 156.87 54.321 10.391 35.586-59.254 68.089-156.87 68.089s-167.26-32.503-156.87-68.089c9.175-31.423 78.994-54.321 156.87-54.321z" fill="#fdfdfd"/><path d="m305.32 500.9c77.038 0 146.03 22.666 154.99 53.734 10.135 35.131-58.689 67.17-154.99 67.17s-165.13-32.039-154.99-67.17c8.963-31.068 77.952-53.734 154.99-53.734z" fill="#fafbfb"/><path d="m305.32 501.49c76.195 0 144.36 22.434 153.11 53.146 9.883 34.676-58.12 66.254-153.11 66.254s-162.99-31.578-153.11-66.254c8.752-30.712 76.913-53.146 153.11-53.146z" fill="#f8f8f9"/><path d="m305.32 502.08c75.351 0 142.68 22.2 151.23 52.558 9.634 34.223-57.548 65.34-151.23 65.34s-160.86-31.117-151.23-65.34c8.546-30.358 75.877-52.558 151.23-52.558z" fill="#f6f6f7"/><path d="m305.32 502.67c74.503 0 141.01 21.967 149.34 51.967 9.388 33.771-56.972 64.43-149.34 64.43s-158.73-30.659-149.35-64.43c8.339-30 74.842-51.967 149.35-51.967z" fill="#f4f4f4"/><path d="m305.32 503.26c73.654 0 139.33 21.731 147.46 51.374 9.146 33.318-56.391 63.521-147.46 63.521s-156.61-30.203-147.46-63.521c8.136-29.643 73.808-51.374 147.46-51.374z" fill="#f2f2f2"/><path d="m305.32 503.85c72.803 0 137.65 21.495 145.58 50.78 8.906 32.867-55.807 62.616-145.58 62.616s-154.49-29.749-145.58-62.616c7.936-29.284 72.778-50.78 145.58-50.78z" fill="#eff0f0"/><path d="m305.32 504.45c71.95 0 135.96 21.259 143.7 50.186 8.671 32.416-55.219 61.714-143.7 61.714s-152.37-29.298-143.7-61.714c7.737-28.927 71.749-50.186 143.7-50.186z" fill="#edeeee"/><path d="m305.32 505.05c71.095 0 134.28 21.021 141.82 49.589 8.438 31.967-54.627 60.814-141.82 60.814s-150.26-28.848-141.82-60.814c7.541-28.569 70.723-49.589 141.82-49.589z" fill="#ebebec"/><path d="m305.32 505.64c70.236 0 132.59 20.781 139.93 48.99 8.21 31.518-54.03 59.916-139.93 59.916s-148.14-28.398-139.94-59.916c7.348-28.209 69.698-48.99 139.94-48.99z" fill="#e9e9ea"/><path d="m305.32 506.24c69.377 0 130.9 20.541 138.05 48.391 7.983 31.068-53.431 59.022-138.05 59.022s-146.04-27.954-138.05-59.022c7.157-27.85 68.675-48.391 138.05-48.391z" fill="#e6e7e8"/><path d="m305.32 506.84c68.516 0 129.2 20.301 136.17 47.79 7.761 30.621-52.827 58.131-136.17 58.131s-143.93-27.51-136.17-58.131c6.967-27.489 67.655-47.79 136.17-47.79z" fill="#e4e5e5"/><path d="m305.32 507.45c67.651 0 127.51 20.059 134.29 47.188 7.542 30.174-52.221 57.242-134.29 57.242s-141.83-27.068-134.29-57.242c6.782-27.129 66.637-47.188 134.29-47.188z" fill="#e2e2e3"/><path d="m305.32 508.05c66.786 0 125.81 19.816 132.4 46.584 7.326 29.729-51.608 56.355-132.4 56.355s-139.73-26.627-132.41-56.355c6.597-26.768 65.62-46.584 132.41-46.584z" fill="#dfe0e1"/><path d="m305.32 508.66c65.917 0 124.11 19.573 130.52 45.979 7.114 29.282-50.993 55.471-130.52 55.471s-137.64-26.188-130.52-55.471c6.415-26.406 64.606-45.979 130.52-45.979z" fill="#dddedf"/><path d="m305.32 509.26c65.048 0 122.4 19.328 128.64 45.371 6.904 28.838-50.375 54.59-128.64 54.59s-135.55-25.752-128.64-54.59c6.237-26.043 63.595-45.371 128.64-45.371z" fill="#dbdcdd"/><path d="m305.32 509.87c64.175 0 120.7 19.083 126.76 44.763 6.699 28.394-49.753 53.712-126.76 53.712s-133.46-25.318-126.76-53.712c6.06-25.68 62.586-44.763 126.76-44.763z" fill="#d8d9da"/><path d="m305.32 510.48c63.3 0 118.99 18.836 124.88 44.152 6.497 27.949-49.126 52.836-124.88 52.836s-131.37-24.887-124.88-52.836c5.885-25.316 61.578-44.152 124.88-44.152z" fill="#d6d7d8"/><path d="m305.32 511.09c62.424 0 117.28 18.588 123 43.541 6.297 27.507-48.496 51.962-123 51.962s-129.29-24.455-123-51.962c5.712-24.953 60.571-43.541 123-43.541z" fill="#d4d5d6"/><path d="m305.32 511.71c61.545 0 115.57 18.339 121.11 42.928 6.102 27.064-47.861 51.092-121.11 51.092s-127.22-24.027-121.11-51.092c5.542-24.589 59.567-42.928 121.11-42.928z" fill="#d1d2d4"/><path d="m305.32 512.32c60.663 0 113.85 18.09 119.23 42.313 5.908 26.623-47.226 50.223-119.23 50.223-72.007 0-125.14-23.6-119.23-50.223 5.376-24.223 58.567-42.313 119.23-42.313z" fill="#cfd0d1"/><path d="m305.32 512.94c59.78 0 112.14 17.839 117.35 41.697 5.719 26.183-46.584 49.357-117.35 49.357s-123.07-23.175-117.35-49.357c5.212-23.859 57.568-41.697 117.35-41.697z" fill="#cdcecf"/><path d="m305.32 513.56c58.895 0 110.42 17.588 115.47 41.08 5.533 25.742-45.938 48.494-115.47 48.494s-121-22.752-115.47-48.494c5.049-23.492 56.572-41.08 115.47-41.08z" fill="#cacbcd"/><path d="m305.32 514.17c58.007 0 108.7 17.335 113.58 40.461 5.35 25.303-45.291 47.634-113.58 47.634s-118.94-22.331-113.58-47.634c4.889-23.126 55.578-40.461 113.58-40.461z" fill="#c8c9ca"/><path d="m193.53 554.64c4.739-22.775 54.63-39.868 111.79-39.868s107.05 17.093 111.79 39.868c5.178 24.885-44.668 46.815-111.79 46.815s-116.97-21.93-111.79-46.815z" fill="#c6c7c8" fill-rule="evenodd"/><path d="m307.01 564.41c-8.644 0-17.124-.7-25.387-2.048s-16.31-3.342-24.084-5.93-15.278-5.768-22.457-9.487-14.034-7.979-20.51-12.726-12.573-9.977-18.239-15.639-10.898-11.76-15.646-18.232-9.009-13.326-12.73-20.503-6.905-14.679-9.494-22.451-4.585-15.816-5.934-24.077c-1.351-8.269-2.053-16.755-2.053-25.405 0-8.642.701-17.121 2.049-25.382s3.343-16.305 5.931-24.078 5.77-15.275 9.49-22.453 7.981-14.03 12.729-20.505 9.979-12.57 15.643-18.234c5.665-5.664 11.762-10.896 18.237-15.643s13.328-9.006 20.507-12.727 14.682-6.903 22.457-9.491c7.773-2.588 15.818-4.584 24.081-5.933 8.271-1.35 16.759-2.051 25.41-2.051 83.481 0 151.16 70.066 151.16 156.5s-67.682 156.5-151.16 156.5z" fill="url(#bX)"/><path d="m263.338 257.767c7.677-2.293 13.822-3.357 14.277-3.405-3.521 1.484-7.336 1.895-10.96 3.002-4.854 1.482-9.594 3.309-14.449 4.785-.606.184-.833.212-.97.229.586-.688 6.467-2.929 12.102-4.611z" fill="url(#b)"/><path d="m265.913 257.767c6.732-2.138 12.954-3.321 14.011-3.405-.143.094-23.081 8.185-24.489 7.992.133-.822 5.543-3.021 10.478-4.587z" fill="url(#c)"/><path d="m270.328 257.767c5.874-2.09 12.477-3.493 13.23-3.39-.269.345-16.758 6.791-16.919 6.848-4.379 1.565-4.836 1.167-4.829.924.017-.552 2.735-2.325 8.518-4.382z" fill="url(#d)"/><path d="m276.412 257.767c4.996-2.131 11.316-3.641 11.905-3.348-.302.667-9.7 5.485-12.106 6.488-4.627 1.927-5.973 1.578-6.039 1.068-.094-.729 2.019-2.408 6.24-4.208z" fill="url(#e)"/><path d="m283.993 257.767c3.925-2.227 10.404-4.17 10.196-3.058-.489 2.61-11.85 9.513-13.871 7.266-.609-.678.282-2.284 3.675-4.208z" fill="url(#f)"/><path d="m292.898 257.767c1.711-1.584 8.747-5.628 8.605-1.775-.174 4.74-7.928 8.162-9.945 5.518-.7-.919-.199-2.318 1.34-3.743z" fill="url(#g)"/><path d="m302.68 257.77c1.133-3.424 5.571-5.161 7.776-.784 1.771 3.517-1.838 6.271-5.343 5.166-2.07-.654-3.071-2.456-2.433-4.382z" fill="url(#h)"/><path d="m312.359 257.767c-.086-.21-2.041-5.106 3.541-2.735 4.839 2.055 7.339 5.979 4.534 7.117-2.35.953-6.688-1.001-8.075-4.382z" fill="url(#i)"/><path d="m321.6 257.77c-1.418-1.267-3.572-3.394-2.071-3.405 3.63-.028 14.604 5.443 12.575 7.613-1.051 1.123-5.776.017-10.504-4.208z" fill="url(#j)"/><path d="m330.109 257.767c-5.022-2.835-5.186-3.102-5.294-3.277.493-.524 6.875 1.293 10.668 2.874 4.446 1.853 6.609 3.544 6.781 4.399.13.64-1.628 1.945-12.155-3.996z" fill="url(#k)"/><path d="m337.586 257.767c-2.92-1.246-4.495-1.885-5.537-2.307-1.827-.741-2.134-.873-2.324-1.041.594-.228 7.311 1.241 13.09 3.348 5.121 1.865 8.204 3.727 8.123 4.382-.153 1.246-7.782-2.007-13.352-4.382z" fill="url(#l)"/><path d="m343.734 257.767c-3.344-1.188-6.819-1.977-10.102-3.348 2.532-.473 23.289 5.747 24.199 7.856-.677.256-.677.256-14.097-4.508z" fill="url(#m)"/><path d="m231.719 270.746c6.583-3.633 12.256-6.022 13.124-6.198-.322.461-23.36 13.285-24.168 13.453.016-.595 5.486-4.189 11.044-7.255z" fill="url(#n)"/><path d="m234.43 270.75c6.335-3.626 13.094-6.367 13.981-6.167-.502 1.673-22.5 14.197-23.305 13.268.106-1.066 4.114-4.119 9.324-7.101z" fill="url(#o)"/><path d="m205.732 289.819c5.269-4.65 11.508-8.905 12.596-8.588.516 1.146-10.853 11.239-10.968 11.34-7.697 6.766-9.282 6.971-9.607 6.745-.734-.512 2.361-4.538 7.979-9.497z" fill="url(#p)"/><path d="m240.416 270.746c5.576-3.48 13.2-6.719 14.312-6.081.322 1.207-9.068 7.562-12.096 9.415-4.858 2.975-8.561 4.454-9.433 3.767-.885-.697 1.622-3.611 7.217-7.101z" fill="url(#q)"/><path d="m249.391 270.746c5.534-3.993 14.551-7.773 14.274-5.503-.43 3.523-16.381 15.063-19.341 12.415-1.001-.897.418-3.558 5.067-6.912z" fill="url(#r)"/><path d="m261.061 270.746c4.973-4.5 14.472-8.6 14.004-4.495-.695 6.106-14.462 14.806-17.128 10.825-.707-1.055-.256-3.27 3.124-6.33z" fill="url(#s)"/><path d="m275.134 270.746c3.871-5.055 13.111-8.915 13.97-3.596.994 6.158-10.047 13.671-14.586 9.925-1.253-1.034-1.75-3.24.616-6.329z" fill="url(#t)"/><path d="m291.27 270.75c2.028-5.37 10.352-9.107 13.278-3.087 2.706 5.567-3.754 12.015-10.018 9.999-3.081-.993-4.423-3.835-3.26-6.912z" fill="url(#u)"/><path d="m307.938 270.746c-.128-5.708 5.948-8.68 11.17-3.596 4.788 4.662 3.008 10.848-3.121 10.851-3.794.002-7.949-2.772-8.049-7.255z" fill="url(#v)"/><path d="m324.11 270.75c-1.597-3.884-.235-7.857 5.608-5.503 7.357 2.963 11.358 10.505 6.585 12.415-3.538 1.415-9.99-1.554-12.193-6.912z" fill="url(#w)"/><path d="m339.285 270.746c-2.017-2.597-3.778-6.568.079-6.167 6.319.657 17.467 9.814 13.931 12.817-2.327 1.977-9.54-.894-14.01-6.65z" fill="url(#x)"/><path d="m352.96 270.75c-2.534-2.292-6.095-6.176-3.368-6.198 5.063-.04 21.318 10.349 17.872 13.109-1.717 1.376-8.285-1.287-14.504-6.911z" fill="url(#y)"/><path d="m364.62 270.746c-2.386-1.72-7.784-5.764-6.41-6.167 3.811-1.113 22.618 10.498 21.183 13.078-.73 1.313-6.455-.914-14.773-6.911z" fill="url(#z)"/><path d="m373.769 270.746c-8.499-5.289-8.722-5.766-8.868-6.081.809-.438 7.521 2.283 14.204 6.081 5.023 2.854 9.395 6.306 8.995 7.102-.26.516-2.467.28-14.331-7.102z" fill="url(#A)"/><path d="m211.703 289.819c6.158-5.776 14.227-10.33 14.154-7.987-.108 3.487-16.83 19.873-20.055 17.331-1.069-.843.636-4.404 5.901-9.344z" fill="url(#B)"/><path d="m221.943 289.819c5.803-6.102 15.337-11.122 15.389-7.223.069 5.276-15.092 19.814-19.255 16.324-1.569-1.315.021-5.057 3.866-9.101z" fill="url(#C)"/><path d="m236.05 289.82c5.547-6.994 16.01-11.734 16.514-6.199.675 7.42-13.592 19.027-18.393 14.964-1.844-1.56-1.106-5 1.879-8.765z" fill="url(#D)"/><path d="m253.63 289.82c4.714-7.907 16.253-12.241 17.679-4.936 1.517 7.774-10.612 17.506-17.076 13.7-2.622-1.541-2.858-4.982-.603-8.764z" fill="url(#E)"/><path d="m274.28 289.82c2.896-7.926 14.422-12.264 18.163-4.936 3.816 7.474-5.503 16.788-14.043 14.037-3.984-1.283-5.639-4.941-4.12-9.101z" fill="url(#F)"/><path d="m296.966 289.819c.895-7.984 11.06-12.276 16.753-4.936 5.141 6.628.094 15.261-8.439 14.432-5.202-.504-8.854-4.676-8.314-9.496z" fill="url(#G)"/><path d="m319.411 289.819c-.995-7.188 5.983-11.765 13.334-6.199 7.264 5.5 6.577 14.888-1.149 15.696-5.708.597-11.402-3.841-12.185-9.497z" fill="url(#H)"/><path d="m340.84 289.82c-2.3-6.086.99-10.805 8.11-7.635 8.824 3.929 13.138 14.252 6.992 16.737-4.46 1.802-12.464-2.122-15.102-9.102z" fill="url(#I)"/><path d="m360.57 289.82c-2.976-4.971-2.661-9.559 2.551-8.465 7.854 1.647 18.334 13.431 13.595 17.229-3.147 2.524-11.705-1.348-16.146-8.764z" fill="url(#J)"/><path d="m377.91 289.82c-3.666-4.624-5.12-9.101-1.208-8.588 7.703 1.009 20.683 14.731 16.733 17.69-2.63 1.971-10.32-2.537-15.525-9.102z" fill="url(#K)"/><path d="m392.17 289.82c-3.939-4.136-7.073-8.602-4.645-8.634 5.613-.074 21.542 14.511 19.368 17.735-1.185 1.757-7.733-1.762-14.723-9.101z" fill="url(#L)"/><path d="m181.9 314.14c4.384-5.857 9.241-11.037 9.995-10.657.373 2.019-15.239 22.652-16.705 22.078-.318-1.168 3.219-6.756 6.71-11.421z" fill="url(#M)"/><path d="m186.4 314.136c5.299-7.346 12.225-12.803 12.56-9.896.619 5.375-14.211 23.744-17.062 21.135-1.238-1.133.698-5.965 4.502-11.239z" fill="url(#N)"/><path d="m166.6 342.84c3.712-8.223 8.612-14.333 9.534-11.888 1.715 4.551-9.056 26.41-12.26 24.881-1.424-.679-.201-6.507 2.726-12.993z" fill="url(#O)"/><path d="m196.35 314.14c5.523-8.348 14.214-13.524 14.998-8.934 1.253 7.329-13.161 23.683-17.525 19.885-1.763-1.534-.724-6.038 2.527-10.951z" fill="url(#P)"/><path d="m211.26 314.14c5.044-8.812 15.927-14.695 17.386-7.657 1.751 8.452-11.227 22.191-17.577 18.608-2.705-1.525-2.626-6.028.191-10.951z" fill="url(#Q)"/><path d="m230.66 314.14c4.508-9.88 16.899-14.266 19.499-6.901 3.119 8.835-8.963 21.348-17.237 17.853-3.582-1.515-4.512-6.018-2.262-10.952z" fill="url(#R)"/><path d="m254.04 314.14c3.32-10.495 17.356-14.476 21.456-6.084 4.362 8.929-6.843 20.393-16.652 17.036-4.393-1.504-6.368-6.007-4.804-10.952z" fill="url(#S)"/><path d="m280.86 314.14c1.532-9.811 15.186-15.291 21.335-6.084 5.6 8.383-2.74 19.392-13.123 17.324-5.6-1.117-9.054-5.844-8.212-11.24z" fill="url(#T)"/><path d="m308.549 314.136c-.091-10.041 11.816-14.363 19.017-6.901 7.123 7.382 3.016 18.375-6.867 18.378-6.642.002-12.093-5.146-12.15-11.477z" fill="url(#U)"/><path d="m335.42 314.14c-1.411-8.321 6.372-14.238 14.968-8.329 8.646 5.944 8.911 17.648.443 19.568-6.686 1.516-14.175-3.946-15.411-11.239z" fill="url(#V)"/><path d="m360.64 314.14c-2.403-7.506 2.092-13.438 10.161-9.452 9.706 4.794 13.684 17.38 6.447 20.403-5.615 2.347-14.152-3.282-16.608-10.951z" fill="url(#W)"/><path d="m383.36 314.14c-2.983-6.538-1.402-12.437 5.105-10.244 9.616 3.241 17.267 17.899 11.062 21.195-4.453 2.367-12.613-3.16-16.167-10.951z" fill="url(#X)"/><path d="m402.74 314.14c-3.554-6.209-3.979-11.91 1.052-10.498 8.595 2.411 19.071 19.272 13.507 21.737-3.393 1.503-10.332-3.854-14.559-11.239z" fill="url(#Y)"/><path d="m417.94 314.14c-3.817-5.754-5.896-11.313-2.767-10.657 6.147 1.291 19.06 19.298 15.699 21.896-1.929 1.49-7.972-3.761-12.932-11.239z" fill="url(#Z)"/><path d="m174.88 342.84c3.96-9.322 11.076-15.369 12.906-10.966 3.003 7.223-8.078 26.76-13.474 23.755-2.279-1.269-2.04-6.648.568-12.789z" fill="url(#aa)"/><path d="m189.08 342.84c3.982-10.508 13.608-16.191 16.349-9.652 3.612 8.617-7.086 25.186-14.489 22.441-3.408-1.263-4.19-6.641-1.86-12.789z" fill="url(#ab)"/><path d="m208.64 342.84c3.464-10.962 15.424-16.429 19.39-8.862 4.775 9.11-5.807 24.287-15.097 21.651-4.433-1.257-6.238-6.636-4.293-12.789z" fill="url(#ac)"/><path d="m233.01 342.84c2.796-11.763 16.914-16.835 22.215-7.981 5.552 9.273-4.88 23.249-15.503 20.77-5.354-1.249-8.176-6.628-6.712-12.789z" fill="url(#ad)"/><path d="m261.64 342.84c1.695-11.635 17.037-16.782 23.791-7.981 6.922 9.02-1.445 22.153-13.363 20.975-6.811-.674-11.391-6.381-10.428-12.994z" fill="url(#ae)"/><path d="m293.084 342.842c.521-11.61 15.228-16.757 22.807-7.981 7.795 9.024.813 22.158-11.148 20.975-6.834-.676-11.955-6.384-11.659-12.994z" fill="url(#af)"/><path d="m324.2 342.842c-.613-11.167 11.621-16.551 20.14-8.862 8.506 7.676 5.441 20.749-5.122 21.855-7.576.795-14.593-5.277-15.018-12.993z" fill="url(#ag)"/><path d="m353.91 342.84c-1.588-10.56 8.1-16.153 16.719-9.652 9.659 7.285 8.653 21.464-1.605 22.646-6.891.793-13.954-5.278-15.114-12.994z" fill="url(#ah)"/><path d="m381.26 342.84c-2.26-9.483 3.996-15.325 11.744-10.966 10.219 5.749 12.782 21.29 3.919 23.755-6.081 1.692-13.694-4.523-15.663-12.789z" fill="url(#ai)"/><path d="m405.3 342.842c-2.856-9.05.926-14.845 7.496-11.482 9.562 4.894 14.368 21.68 6.949 24.271-4.819 1.683-11.839-4.532-14.445-12.789z" fill="url(#aj)"/><path d="m425.07 342.84c-3.222-8.494-1.684-14.271 3.166-11.888 8.396 4.126 15.256 23.427 8.842 24.881-3.472.789-9.084-5.283-12.008-12.993z" fill="url(#ak)"/><path d="m154.194 375.088c1.845-8.66 4.451-15.235 5.363-13.529 1.692 3.163-3.861 27.85-6.255 27.805-1.16-.022-.752-6.559.892-14.276z" fill="url(#al)"/><path d="m159.69 375.09c2.03-9.886 6.894-16.553 9.291-12.738 3.837 6.101-2.567 28.514-7.699 26.945-2.38-.728-3.079-6.968-1.592-14.207z" fill="url(#am)"/><path d="m152.688 410.007c-.121-9.318 1.899-16.372 4.157-14.515 4.312 3.547 4.009 29.233-.344 29.238-1.998.002-3.709-6.602-3.813-14.723z" fill="url(#an)"/><path d="m171.85 375.09c2.081-11.041 9.796-17.586 13.533-11.48 5.018 8.196-1.912 27.161-9.385 25.687-3.69-.729-5.513-6.969-4.148-14.207z" fill="url(#ao)"/><path d="m190.06 375.09c1.919-11.769 12.141-18.066 17.36-10.695 6.278 8.864-1.279 26.318-10.782 24.902-4.869-.726-7.758-6.966-6.578-14.207z" fill="url(#ap)"/><path d="m213.75 375.09c1.607-12.362 14.569-18.417 21.014-9.815 6.879 9.182-1.298 25.347-12.152 24.022-5.912-.722-9.804-6.962-8.862-14.207z" fill="url(#aq)"/><path d="m242.31 375.09c1.11-12.303 15.679-18.357 23.618-9.815 8.161 8.781 1.034 24.091-11.214 24.09-7.55 0-13.114-6.404-12.404-14.275z" fill="url(#ar)"/><path d="m275.065 375.088c.548-12.275 15.725-18.421 24.237-9.815 8.684 8.779 2.099 24.089-10.361 24.09-8.003.002-14.227-6.402-13.876-14.275z" fill="url(#as)"/><path d="m308.889 375.088c-.028-12.179 14.438-18.325 23.104-9.815 8.938 8.778 3.216 24.087-9.004 24.09-7.757.002-14.081-6.402-14.1-14.275z" fill="url(#at)"/><path d="m341.713 375.088c-.599-12.455 12.521-18.509 21.27-9.815 8.831 8.776 4.132 24.086-7.395 24.09-7.273.003-13.496-6.401-13.875-14.275z" fill="url(#au)"/><path d="m372.51 375.09c-1.062-11.684 9.428-17.981 17.817-10.695 9.003 7.818 6.826 23.644-3.426 24.902-6.901.847-13.626-5.792-14.391-14.207z" fill="url(#av)"/><path d="m400.263 375.088c-1.442-11.115 6.31-17.553 13.824-11.48 9.038 7.304 8.52 24.349-.781 25.687-5.858.842-11.952-5.796-13.043-14.207z" fill="url(#aw)"/><path d="m423.93 375.09c-1.621-9.957 2.839-16.505 8.676-12.738 8.654 5.584 10.487 25.479 2.483 26.945-4.576.838-9.791-5.8-11.159-14.207z" fill="url(#ax)"/><path d="m442.502 375.088c-1.762-9.331.39-15.865 4.342-13.191 6.474 4.378 9.904 25.887 4.371 27.398-3.056.834-7.127-5.804-8.713-14.207z" fill="url(#ay)"/><path d="m161.786 410.007c-.128-10.46 4.472-17.737 8.633-13.661 6.225 6.098 4.574 28.381-2.103 28.385-3.502.001-6.431-6.604-6.53-14.724z" fill="url(#az)"/><path d="m177.389 410.007c-.121-11.179 6.954-18.366 12.831-13.035 8.005 7.261 5.145 27.756-3.874 27.759-4.852.001-8.869-6.604-8.957-14.724z" fill="url(#aA)"/><path d="m198.886 410.007c-.107-11.922 9.593-18.937 17.015-12.304 9.041 8.08 4.896 27.025-5.914 27.027-6.049.002-11.028-6.603-11.101-14.723z" fill="url(#aB)"/><path d="m225.67 410.01c-.084-12.471 12.523-19.322 21.078-11.454 9.574 8.805 4.189 26.176-8.114 26.178-7.094 0-12.909-6.604-12.964-14.724z" fill="url(#aC)"/><path d="m257.141 410.007c-.053-13.091 15.568-19.771 24.581-10.511 8.947 9.194 2.551 25.23-10.064 25.234-8.107.002-14.483-6.464-14.517-14.723z" fill="url(#aD)"/><path d="m291.7 410.01c-.015-13.092 15.507-19.771 24.424-10.511 9.08 9.432 2.788 25.231-10.048 25.234-7.918.002-14.366-6.603-14.376-14.723z" fill="url(#aE)"/><path d="m325.9 410.01c.022-13.345 14.668-19.927 23.389-10.511 8.516 9.195 2.339 25.231-9.719 25.234-7.551.002-13.683-6.603-13.67-14.723z" fill="url(#aF)"/><path d="m358.56 410.01c.057-12.53 12.444-19.382 20.712-11.454 9.183 8.805 3.76 26.176-8.173 26.178-6.95 0-12.575-6.604-12.539-14.724z" fill="url(#aG)"/><path d="m388.624 410.007c.087-12.47 11.028-19.321 18.292-11.454 8.131 8.805 3.283 26.175-7.305 26.178-6.115.001-11.044-6.604-10.987-14.724z" fill="url(#aH)"/><path d="m415.043 410.007c.107-11.845 8.354-18.859 14.464-12.304 7.532 8.081 3.718 27.025-5.441 27.027-5.136.001-9.099-6.466-9.023-14.723z" fill="url(#aI)"/><path d="m436.77 410.01c.118-10.763 5.079-17.785 9.651-13.661 7.057 6.365 4.725 28.383-3.007 28.385-3.816 0-6.735-6.467-6.644-14.724z" fill="url(#aJ)"/><path d="m155.08 444.66c-1.966-8.18-2.454-14.886-1.024-14.07 3.077 1.754 9.036 27.678 6.376 27.738-1.115.025-3.566-6.234-5.352-13.668z" fill="url(#aK)"/><path d="m160.55 444.662c-2.033-8.781-.659-15.645 2.773-13.854 5.934 3.093 10.638 25.932 5.656 27.457-2.625.805-6.565-5.552-8.429-13.603z" fill="url(#aL)"/><path d="m168.27 476.54c-3.607-7.484-4.739-13.592-2.375-12.814 4.218 1.388 14.684 23.597 11.787 25.014-1.496.732-5.983-5.083-9.412-12.2z" fill="url(#aM)"/><path d="m172.63 444.66c-2.15-10.125 1.947-17.061 7.692-13.019 7.927 5.578 10.281 25.233 3.189 26.622-4.087.801-9.172-5.555-10.881-13.603z" fill="url(#aN)"/><path d="m190.744 444.662c-1.947-10.605 4.906-17.563 12.224-12.408 9.45 6.66 9.93 24.65.692 26.012-5.403.796-11.439-5.56-12.916-13.604z" fill="url(#aO)"/><path d="m214.29 444.66c-1.659-11.34 8.059-18.116 16.771-11.695 9.826 7.242 8.35 24.029-2.225 25.299-6.573.789-13.37-5.568-14.546-13.604z" fill="url(#aP)"/><path d="m242.69 444.66c-1.206-11.904 11.678-18.509 21.21-10.871 9.883 7.919 6.487 23.244-5.423 24.475-7.729.798-14.958-5.431-15.787-13.604z" fill="url(#aQ)"/><path d="m275.252 444.662c-.633-12.664 14.759-19.084 23.867-9.954 8.808 8.827 2.959 23.618-9.34 23.622-7.633.002-14.151-6.129-14.527-13.668z" fill="url(#aR)"/><path d="m308.878 444.662c.04-12.561 15.329-18.98 23.71-9.954 8.198 8.829 1.723 23.62-10.342 23.622-7.394.001-13.392-6.131-13.368-13.668z" fill="url(#aS)"/><path d="m341.511 444.662c.685-12.534 15.392-18.953 22.807-9.954 7.573 9.192-.563 24.824-12.264 23.558-6.397-.692-10.93-6.541-10.543-13.604z" fill="url(#aT)"/><path d="m372.13 444.66c1.233-11.966 13.635-18.57 20.416-10.871 7.629 8.663-.541 25.818-11.656 24.475-5.722-.692-9.488-6.539-8.76-13.604z" fill="url(#aU)"/><path d="m399.72 444.66c1.75-11.936 12.763-18.54 18.128-10.871 6.063 8.668-1.955 25.822-11.44 24.475-4.849-.689-7.725-6.537-6.688-13.604z" fill="url(#aV)"/><path d="m423.25 444.66c2.072-11.271 10.541-18.049 14.614-11.695 5.159 8.046-2.422 26.725-10.268 25.299-3.778-.687-5.646-6.536-4.346-13.604z" fill="url(#aW)"/><path d="m441.71 444.66c2.175-10.201 7.594-17.015 10.355-13.019 4.373 6.329-2.691 28.224-8.591 26.622-2.512-.681-3.271-6.53-1.764-13.603z" fill="url(#aX)"/><path d="m176.45 476.54c-3.642-8.032-2.91-14.281 1.477-12.615 6.954 2.642 15.293 21.978 10.623 24.632-2.719 1.545-8.6-4.295-12.1-12.017z" fill="url(#aY)"/><path d="m190.48 476.54c-3.483-8.614-.527-14.933 5.75-12.292 9.044 3.805 15.166 21.752 8.291 24.309-4.103 1.525-10.926-4.315-14.041-12.017z" fill="url(#aZ)"/><path d="m209.8 476.54c-3.061-9.079 2.521-15.503 10.298-11.85 9.646 4.532 13.623 20.175 5.993 23.575-5.314 2.368-13.535-3.549-16.291-11.725z" fill="url(#a0)"/><path d="m233.88 476.54c-2.592-10.228 6.875-16.491 16.078-10.638 9.82 6.245 10.041 20.431.353 22.654-6.622 1.52-14.453-4.207-16.431-12.016z" fill="url(#a1)"/><path d="m262.18 476.54c-1.665-10.735 11.104-16.925 20.394-9.884 9.207 6.977 6.188 21.012-4.75 22.083-7.216.707-14.526-4.993-15.644-12.199z" fill="url(#a2)"/><path d="m293.249 476.538c-.509-10.732 12.821-16.922 21.288-9.884 8.393 6.975 3.891 21.01-7.083 22.083-7.225.707-13.863-4.993-14.205-12.199z" fill="url(#a3)"/><path d="m324 476.54c.675-11.417 15.185-17.335 22.18-9.046 7.001 8.297-1.176 22.395-12.323 21.245-5.995-.618-10.232-5.862-9.857-12.199z" fill="url(#a4)"/><path d="m353.36 476.54c1.828-11.357 15.842-17.275 21.422-9.046 5.914 8.725-4.4 23.488-14.716 21.062-4.824-1.134-7.644-6.188-6.706-12.016z" fill="url(#a5)"/><path d="m380.38 476.54c2.754-10.808 14.731-16.905 19.418-9.884 5.232 7.838-4.59 23.317-14.014 22.083-4.696-.615-7.019-5.859-5.404-12.199z" fill="url(#a6)"/><path d="m404.14 476.54c3.629-10.759 14.305-16.856 17.306-9.884 3.473 8.064-7.844 24.438-15.136 21.9-3.28-1.142-4.172-6.083-2.17-12.016z" fill="url(#a7)"/><path d="m423.67 476.54c3.978-9.816 11.679-16.042 13.966-11.29 3.09 6.419-7.696 24.859-13.739 23.489-2.701-.612-2.798-5.856-.227-12.199z" fill="url(#a8)"/><path d="m184.273 504.774c-3.598-4.567-7.272-10.046-6.995-11.204 1.421-.688 17.521 19.542 17.227 21.645-.866.357-6.115-5.217-10.232-10.441z" fill="url(#a9)"/><path d="m188.69 504.77c-4.531-5.968-6.463-11.233-4.135-11.269 4.279-.065 19.023 19.072 16.607 21.555-1.297 1.334-7.592-3.858-12.472-10.286z" fill="url(#ba)"/><path d="m208.662 528.521c-6.045-5.075-9.346-9.234-8.048-9.295 2.088-.098 21.33 16.209 20.798 17.623-1.11.268-7.426-3.859-12.75-8.328z" fill="url(#bb)"/><path d="m198.45 504.77c-4.498-6.46-4.781-11.905-.582-11.204 7.634 1.273 18.212 18.232 15.021 21.244-2.183 2.062-9.606-3.099-14.439-10.04z" fill="url(#bc)"/><path d="m213.08 504.77c-4.252-7.062-2.515-12.522 3.508-11.026 9.707 2.414 17.318 18.082 12.166 21.066-3.535 2.048-11.446-3.019-15.674-10.04z" fill="url(#bd)"/><path d="m232.1 504.77c-3.636-7.577.457-13.097 7.963-10.739 10.178 3.196 14.966 16.84 9.062 20.436-4.651 2.834-13.402-2.151-17.025-9.697z" fill="url(#be)"/><path d="m255.05 504.77c-2.808-8.44 5.026-14.06 13.74-9.857 10.248 4.942 10.605 17.276 2.792 19.897-5.99 2.01-14.179-2.963-16.532-10.04z" fill="url(#bf)"/><path d="m281.35 504.77c-1.544-9.421 10.021-14.899 18.198-8.62 7.835 6.016 4.837 18.129-4.716 19.061-6.172.602-12.472-4.277-13.482-10.441z" fill="url(#bg)"/><path d="m308.52 504.774c.102-10.081 13.271-15.317 19.848-7.89 6.162 6.959-1.036 19.294-10.697 18.33-5.186-.516-9.205-5.102-9.151-10.44z" fill="url(#bh)"/><path d="m334.88 504.77c1.926-10.764 15.436-14.657 19.977-7.89 5.051 7.526-4.865 20.267-14.148 18.176-4.273-.962-6.724-5.288-5.829-10.286z" fill="url(#bi)"/><path d="m359.62 504.77c3.675-10.884 16.379-14.688 19.417-7.89 3.483 7.793-9.063 21.198-16.781 17.93-3.104-1.314-4.188-5.443-2.636-10.04z" fill="url(#bj)"/><path d="m381.91 504.77c4.581-9.53 15.631-14.848 17.914-8.62 2.68 7.311-11.346 22.135-17.655 18.66-2.405-1.324-2.51-5.359-.259-10.04z" fill="url(#bk)"/><path d="m400.92 504.77c5.471-9.075 14.714-14.454 15.952-9.283 1.535 6.41-12.496 21.956-17.662 19.569-2.068-.955-1.365-5.185 1.71-10.286z" fill="url(#bl)"/><path d="m415.833 504.774c5.744-8.222 12.667-13.542 13.468-10.351 1.268 5.052-14.437 23.373-17.688 20.637-1.1-.925.635-5.155 4.22-10.286z" fill="url(#bm)"/><path d="m214.46 528.521c-5.919-5.283-7.782-9.264-5.493-9.295 4.236-.057 21.595 15.484 19.55 17.504-1.006.995-8.003-2.808-14.057-8.209z" fill="url(#bn)"/><path d="m224.4 528.52c-4.931-4.932-6.188-9.274-2.692-9.295 6.881-.041 20.109 14.877 17.665 17.312-1.629 1.622-9.606-2.648-14.973-8.017z" fill="url(#bo)"/><path d="m238.1 528.52c-4.877-5.852-3.389-9.772 1.146-9.24 8.298.973 17.867 13.776 14.411 16.988-2.396 2.226-10.683-1.902-15.557-7.748z" fill="url(#bp)"/><path d="m255.18 528.52c-3.914-6.248-.285-10.223 5.432-9.094 9.552 1.885 15.251 13.682 9.976 16.842-3.657 2.191-11.722-1.865-15.408-7.748z" fill="url(#bq)"/><path d="m275.23 528.52c-2.845-7.416 4.899-11.42 11.853-8.121 8.232 3.906 8.451 14.064 2.119 16.138-4.885 1.601-11.805-2.371-13.972-8.017z" fill="url(#br)"/><path d="m297.256 528.521c-.967-8.244 9.631-11.885 15.343-7.091 6.251 5.246 1.831 14.732-5.294 15.419-4.778.462-9.474-3.431-10.049-8.328z" fill="url(#bs)"/><path d="m319.05 528.52c1.295-8.868 13.104-12.092 16.93-6.479 4.009 5.883-4.476 16.315-11.946 14.688-3.473-.755-5.569-4.209-4.984-8.209z" fill="url(#bt)"/><path d="m339.86 528.52c3.555-8.935 15.111-12.08 17.274-6.479 2.35 6.083-9.432 17.058-15.562 14.496-2.474-1.033-3.179-4.33-1.712-8.017z" fill="url(#bu)"/><path d="m359.02 528.52c5.416-8.597 15.559-11.954 16.878-7.091 1.775 6.545-13.407 17.522-17.741 15.107-1.853-1.032-1.507-4.254.863-8.016z" fill="url(#bv)"/><path d="m375.859 528.521c6.885-8.254 15.605-11.652 16.099-7.641.325 2.646-3.445 7.247-7.158 10.233-6.043 4.86-11.003 6.575-12.308 5.424-1.143-1.008.209-4.23 3.367-8.016z" fill="url(#bw)"/><path d="m389.7 528.52c7.935-7.92 15.105-11.288 14.873-8.121-.409 5.594-18.365 18.009-20.452 16.33-1.013-.813 2.073-4.709 5.579-8.209z" fill="url(#bx)"/><path d="m235.18 546.92c-5.692-2.956-10.845-6.204-11.315-6.923 1.028 0 24.432 12.658 24.603 12.787-.597 0-6.766-2.477-13.288-5.864z" fill="url(#by)"/><path d="m237.761 546.925c-5.251-2.829-9.364-5.757-9.568-6.81 1.133-1.442 23.455 12.381 23.624 12.593-.65.47-8.269-2.665-14.056-5.783z" fill="url(#bz)"/><path d="m267.141 559.135c-6.39-1.729-11.113-3.516-12.294-4.18.231-.098.287-.121 4.654 1.277 2.472.791 5.856 1.875 9.478 2.902 4.127 1.169 8.34 1.982 12.493 3.043-.59-.055-6.639-.962-14.331-3.042z" fill="url(#bA)"/><path d="m243.475 546.925c-5.906-3.47-8.696-6.517-7.246-6.923 2.514-.705 21.821 10.695 21.52 12.706-.982.615-8.72-2.52-14.274-5.783z" fill="url(#bB)"/><path d="m252.04 546.92c-5.394-3.663-6.762-6.537-4.654-6.923 4.858-.889 19.905 10.738 18.686 12.574-.717 1.079-8.232-1.712-14.032-5.651z" fill="url(#bC)"/><path d="m263.17 546.92c-4.331-3.69-4.406-6.559-1.76-6.923 6.196-.852 17.448 9.752 15.179 12.391-1.43 1.663-9.1-1.787-13.419-5.468z" fill="url(#bD)"/><path d="m276.6 546.92c-3.523-4.332-1.283-7.329 2.921-6.923 7.119.689 12.945 9.312 9.636 12.163-2.42 2.085-9.345-1.292-12.557-5.24z" fill="url(#bE)"/><path d="m292 546.92c-2.077-5.182 3.354-8.32 8.335-6.378 6.073 2.369 6.404 9.795 1.838 11.846-3.578 1.607-8.67-1.719-10.173-5.468z" fill="url(#bF)"/><path d="m307.9 546.92c.151-6.236 8.604-8.962 12.091-5.278 3.744 3.958-1.669 11.169-6.886 11.168-3.303-.003-5.274-3.059-5.205-5.89z" fill="url(#bG)"/><path d="m323.32 546.92c2.967-6.784 12.287-9.202 13.621-4.813 1.372 4.515-9.156 12.778-13.1 10.281-1.364-.864-1.573-3.061-.521-5.468z" fill="url(#bH)"/><path d="m337.803 546.925c5.296-6.416 13.889-8.954 14.268-5.278.483 4.682-13.446 12.652-16.154 10.93-1.259-.802.04-3.416 1.886-5.652z" fill="url(#bI)"/><path d="m350.848 546.925c7.937-6.753 14.928-8.481 14.647-5.698-.505 5.015-17.914 12.934-19.161 11.35-.63-.802 2.037-3.546 4.514-5.652z" fill="url(#bJ)"/><path d="m361.98 546.92c10.049-6.819 14.728-7.837 14.726-6.378-.002 1.319-3.61 4.343-8.392 7.033-6.44 3.624-12.7 5.727-13.219 5.128-.547-.632 4.633-4.255 6.885-5.783z" fill="url(#bK)"/><path d="m370.703 546.925c6.188-3.624 13.409-7.673 14.338-6.81-.064 2.95-20.799 13.092-23.449 12.674.078-.376.126-.601 9.111-5.864z" fill="url(#bL)"/><path d="m269.491 559.135c-5.915-1.701-10.19-3.493-10.758-4.18.319-.174.319-.174 24.714 7.186-.364.098-7.116-1.041-13.956-3.006z" fill="url(#bM)"/><path d="m273.522 559.135c-4.938-1.591-8.858-3.465-8.741-4.18.155-.082.628-.334 3.824.717 2.012.662 17.82 6.367 18.019 6.469-.889.113-7.514-1.207-13.102-3.006z" fill="url(#bN)"/><path d="m279.077 559.135c-4.82-1.861-7.186-3.697-6.295-4.18 1.966-1.063 16.695 6.14 17.943 7.125l-.027.098c-1.038.081-6.792-1.178-11.621-3.043z" fill="url(#bO)"/><path d="m285.997 559.135c-3.784-1.944-4.849-3.73-3.468-4.18 1.285-.417 4.052.488 6.119 1.598 3.963 2.127 7.348 5.184 7.155 5.527-.285.51-5.987-.984-9.806-2.945z" fill="url(#bP)"/><path d="m294.128 559.135c-2.635-2.211-2.047-4.015.129-4.252 4.95-.541 8.946 5.432 7.606 7.006-.842.988-5.467-.852-7.735-2.754z" fill="url(#bQ)"/><path d="m303.058 559.135c-1.155-3.165 2.526-5.203 5.515-3.898 3.41 1.488 1.991 5.672-.748 6.76-2.136.845-4.239-1.414-4.767-2.862z" fill="url(#bR)"/><path d="m311.894 559.135c1.884-4.154 7.734-5.35 8.579-3.195 1.041 2.654-6.524 7.126-8.51 6.141-.744-.37-.592-1.795-.069-2.946z" fill="url(#bS)"/><path d="m320.331 559.135c5.519-4.464 10.273-5.059 10.272-3.463 0 .976-1.832 2.552-4.455 3.834-4.146 2.025-8.403 2.982-8.656 2.574-.264-.428 2.712-2.844 2.839-2.945z" fill="url(#bT)"/><path d="m328.099 559.135c12.647-6.462 11.824-3.725 11.814-3.696-.894 2.591-14.675 6.938-17.344 6.739l-.048-.098c.236-.217.236-.217 5.578-2.945z" fill="url(#bU)"/><path d="m334.924 559.135c8.535-3.295 12.068-4.659 13.105-4.18.63 1.805-18.021 7.562-21.267 7.223.148-.139.157-.146 1.915-.752 1.427-.491 3.283-1.148 6.247-2.291z" fill="url(#bV)"/><path d="m340.537 559.135c13.462-4.328 13.462-4.328 13.95-4.252-.216 1.781-19.37 6.983-24.331 7.307.22-.125.22-.125 1.384-.432 2.456-.649 4.991-1.336 8.997-2.623z" fill="url(#bW)"/></svg>